PathFileType	4	(X/Y/Z)	6_coords_data.trc
DataRate	CameraRate	NumFrames	NumMarkers	Units	OrigDataRate	OrigDataStartFrame	OrigNumFrames
30.0	30.0	6	21	m	30.0	19	66
Frame#	Time	THUMB_TIP	THUMB_IP	THUMB_MCP	THUMB_CMC	INDEX_TIP	INDEX_DIP	INDEX_PIP	INDEX_MCP	MIDDLE_TIP	MIDDLE_DIP	MIDDLE_PIP	MIDDLE_MCP	RING_TIP	RING_DIP	RING_PIP	RING_MCP	PINKY_TIP	PINKY_DIP	PINKY_PIP	PINKY_MCP	WRIST
X1	Y1	Z1	X2	Y2	Z2	X3	Y3	Z3	X4	Y4	Z4	X5	Y5	Z5	X6	Y6	Z6	X7	Y7	Z7	X8	Y8	Z8	X9	Y9	Z9	X10	Y10	Z10	X11	Y11	Z11	X12	Y12	Z12	X13	Y13	Z13	X14	Y14	Z14	X15	Y15	Z15	X16	Y16	Z16	X17	Y17	Z17	X18	Y18	Z18	X19	Y19	Z19	X20	Y20	Z20	X21	Y21	Z21
18	0.6	0.04029510116577149	-0.022543800354003905	1.01247998046875	0.03876589965820312	-0.04575239944458008	1.0216199951171876	0.02365880012512207	-0.06041249847412109	1.0456300048828124	0.005642630100250244	-0.03539369964599609	1.0591700439453124	0.009721309661865234	-0.05726279830932617	1.02952001953125	0.024057300567626953	-0.057074298858642576	1.0191199951171874	0.024815200805664062	-0.062130699157714846	0.9971279907226562	-0.015124899864196777	-0.06454799652099609	1.0037000122070312	0.021914600372314453	-0.04145780181884766	1.029	0.02255780029296875	-0.03944100189208984	1.024260009765625	0.02587730026245117	-0.039278099060058594	0.9963099975585937	-0.018694099426269532	-0.04157099914550781	0.9947319946289063	0.021934700012207032	-0.02664940071105957	1.0248399658203124	0.017917400360107423	-0.02305620002746582	1.0319300537109375	0.027857599258422853	-0.019850400924682616	1.0065900268554688	-0.014170599937438964	-0.017759300231933593	0.9974000244140625	0.0056282000541687015	-0.007083749771118164	1.0376099853515626	0.019474300384521484	-0.007679629802703858	1.03175	0.02589469909667969	-0.003293920040130615	1.0137999877929686	-0.004870319843292236	0.002558900117874145	1.006760009765625	-0.027701799392700194	-0.014542200088500977	1.0760699462890626
19	0.6333333333333333	0.04012509918212891	-0.022671899795532226	1.0119500122070313	0.038405300140380856	-0.04573809814453125	1.0211599731445313	0.023510400772094726	-0.06044499969482422	1.0453199462890626	0.005464290142059326	-0.03542950057983398	1.058949951171875	0.009269570350646973	-0.05748509979248047	1.0290799560546875	0.023890600204467774	-0.05724860000610352	1.0186599731445312	0.024545799255371092	-0.06231850051879883	0.9966530151367188	-0.015403599739074706	-0.0645781021118164	1.0034600219726562	0.02172220039367676	-0.04151699829101563	1.0284300537109374	0.02246809959411621	-0.03955839920043945	1.023739990234375	0.025510799407958983	-0.03944380187988281	0.9958140258789062	-0.019062799453735353	-0.04156890106201172	0.9945269775390625	0.021558000564575196	-0.02654549980163574	1.0253800048828126	0.017478500366210938	-0.023213499069213866	1.0311099853515624	0.027645599365234374	-0.020003799438476563	1.0061799926757813	-0.014405599594116211	-0.01781909942626953	0.997031005859375	0.0055308198928833005	-0.00721727991104126	1.037300048828125	0.019360599517822267	-0.007816269874572753	1.031800048828125	0.02578019905090332	-0.0034491701126098634	1.0135700073242186	-0.004981249809265137	0.002471820116043091	1.00652001953125	-0.02770840072631836	-0.01463129997253418	1.076050048828125
20	0.6666666666666666	0.040000301361083984	-0.02280139923095703	1.0113599853515625	0.03827149963378906	-0.045869098663330075	1.0208499755859375	0.023254600524902344	-0.06044380187988281	1.0449200439453126	0.005255030155181885	-0.03548659896850586	1.0586800537109375	0.008790769577026368	-0.05762789916992188	1.0286400146484376	0.023575399398803713	-0.057390899658203126	1.018010009765625	0.024326900482177734	-0.06253060150146485	0.9962579956054688	-0.015706299781799316	-0.06459439849853515	1.0032999877929687	0.021164499282836913	-0.04157009887695313	1.0285799560546875	0.022244100570678712	-0.03967530059814453	1.02327001953125	0.02519860076904297	-0.03958629989624023	0.99531298828125	-0.019403900146484375	-0.04158520126342773	0.9944739990234375	0.021487199783325195	-0.026925500869750978	1.0236900024414062	0.017577899932861327	-0.023277700424194334	1.0307099609375	0.027320600509643553	-0.020119699478149414	1.005510009765625	-0.014810400009155273	-0.01783169937133789	0.9969769897460937	0.005434450149536133	-0.0073299498558044435	1.03702001953125	0.01927560043334961	-0.00797672986984253	1.0310999755859376	0.025358499526977538	-0.003584259986877441	1.0127999877929688	-0.00527193021774292	0.0024305799007415772	1.0063300170898437	-0.028067899703979493	-0.014649200439453124	1.0756500244140625
21	0.7	0.03992100143432617	-0.0230447998046875	1.0106799926757812	0.03811740112304687	-0.046222801208496096	1.020489990234375	0.02302389907836914	-0.06051340103149414	1.0445899658203126	0.0050526800155639645	-0.03546369934082031	1.058280029296875	0.008556529998779297	-0.05768719863891601	1.0280799560546876	0.023493299484252928	-0.05748630142211914	1.01772998046875	0.023811599731445313	-0.06274610137939453	0.9958889770507813	-0.01608709907531738	-0.06461150360107422	1.0031199951171874	0.021433399200439452	-0.041775699615478515	1.0278499755859376	0.02200749969482422	-0.03975579833984375	1.0233699951171875	0.024785200119018556	-0.03981779861450195	0.9948300170898438	-0.01976059913635254	-0.041584999084472656	0.9941959838867187	0.021080799102783203	-0.02700779914855957	1.0234500122070314	0.017394800186157227	-0.0234197998046875	1.030449951171875	0.027062599182128905	-0.020255300521850587	1.005239990234375	-0.015111599922180176	-0.017836799621582033	0.9967369995117188	0.005186540126800537	-0.007446579933166504	1.0366600341796874	0.019197900772094725	-0.008082489967346191	1.031	0.02519809913635254	-0.003712009906768799	1.0123900146484375	-0.005580790042877197	0.002399899959564209	1.0061599731445312	-0.027870000839233397	-0.014698100090026856	1.075949951171875
22	0.7333333333333333	0.039819198608398436	-0.02324850082397461	1.0104099731445313	0.03790060043334961	-0.04643539810180664	1.0201500244140624	0.02271750068664551	-0.06069089889526367	1.044260009765625	0.004893070220947266	-0.03567910003662109	1.0580400390625	0.008257539749145507	-0.0578577995300293	1.028050048828125	0.02322599983215332	-0.05765589904785156	1.0173800048828125	0.023706499099731444	-0.06282939910888671	0.9956170043945313	-0.016291200637817384	-0.06458709716796875	1.0027899780273437	0.020888299942016603	-0.04184209823608399	1.0273699951171875	0.02181180000305176	-0.03991120147705078	1.0224600219726563	0.024653999328613282	-0.03984560012817383	0.9945579833984375	-0.019939300537109374	-0.04154999923706055	0.9939600219726562	0.02120789909362793	-0.026900400161743165	1.023780029296875	0.01712579917907715	-0.02354319953918457	1.030030029296875	0.026917699813842774	-0.020366899490356444	1.00475	-0.01524209976196289	-0.017835899353027342	0.996469970703125	0.005045629978179931	-0.00761506986618042	1.0365699462890625	0.018997200012207033	-0.008172750473022461	1.0304300537109374	0.025011699676513673	-0.0037758700847625734	1.0121599731445312	-0.005731080055236816	0.002328069925308227	1.0059000244140626	-0.028088199615478517	-0.014766900062561036	1.075469970703125
23	0.7666666666666667	0.039728900909423825	-0.02333530044555664	1.0103699951171874	0.037865299224853516	-0.046502300262451175	1.02002001953125	0.02277239990234375	-0.060748199462890624	1.0441300048828126	0.004855710029602051	-0.035804100036621093	1.058010009765625	0.008106510162353515	-0.05773659896850586	1.0284300537109374	0.023279199600219725	-0.057758800506591795	1.0174000244140624	0.023808799743652343	-0.06294900131225586	0.9956220092773438	-0.01628739929199219	-0.064731201171875	1.00277001953125	0.020819700241088868	-0.04191659927368164	1.0278699951171875	0.021831199645996092	-0.04005319976806641	1.0223200073242187	0.02467340087890625	-0.04002289962768555	0.9945499877929688	-0.020003999710083008	-0.04170109939575195	0.9939000244140626	0.02112809944152832	-0.02735930061340332	1.0228599853515625	0.017226900100708008	-0.023627399444580078	1.03022998046875	0.026936800003051757	-0.020495500564575195	1.004739990234375	-0.015303899765014648	-0.017969900131225586	0.9964219970703125	0.005052360057830809	-0.007777460098266601	1.03618994140625	0.018904300689697267	-0.008261810302734375	1.0301500244140624	0.025015600204467775	-0.0038542799949645994	1.01175	-0.0057931699752807615	0.002207639932632446	1.0058499755859376	-0.028132499694824217	-0.014847700119018554	1.07543994140625
